<svg width="101" height="29" viewBox="0 0 101 29" fill="none" xmlns="http://www.w3.org/2000/svg">
<g id="black-logo 1">
<path id="Vector" d="M37.761 24.8572C37.5422 24.8572 37.3632 24.7876 37.224 24.6484C37.0848 24.5092 37.0151 24.3303 37.0151 24.1115V4.72295C37.0151 4.50421 37.0848 4.32524 37.224 4.18604C37.3632 4.04684 37.5422 3.97724 37.761 3.97724H40.476C40.7743 3.97724 40.9931 4.04684 41.1323 4.18604C41.2716 4.32524 41.3611 4.43461 41.4008 4.51416L49.3667 16.9527V4.72295C49.3667 4.50421 49.4363 4.32524 49.5755 4.18604C49.7148 4.04684 49.8838 3.97724 50.0827 3.97724H53.1259C53.3447 3.97724 53.5237 4.04684 53.6629 4.18604C53.8021 4.32524 53.8717 4.50421 53.8717 4.72295V24.1115C53.8717 24.3104 53.8021 24.4894 53.6629 24.6484C53.5237 24.7876 53.3447 24.8572 53.1259 24.8572H50.3811C50.0827 24.8572 49.864 24.7876 49.7247 24.6484C49.6054 24.4894 49.5159 24.38 49.4562 24.3203L41.5202 12.2696V24.1115C41.5202 24.3303 41.4506 24.5092 41.3113 24.6484C41.1721 24.7876 40.9931 24.8572 40.7743 24.8572H37.761ZM63.6841 25.1555C61.3968 25.1555 59.5769 24.5192 58.2244 23.2465C56.8918 21.9738 56.1857 20.1244 56.1061 17.6984C56.1061 17.5393 56.1061 17.3305 56.1061 17.072C56.1061 16.7936 56.1061 16.5748 56.1061 16.4158C56.1857 14.8846 56.5337 13.5721 57.1503 12.4784C57.7669 11.3648 58.6321 10.5196 59.746 9.94296C60.8598 9.34638 62.1626 9.0481 63.6543 9.0481C65.325 9.0481 66.7173 9.3961 67.8312 10.0921C68.9649 10.7682 69.8102 11.7028 70.3671 12.896C70.9439 14.0692 71.2323 15.4215 71.2323 16.9527V17.6387C71.2323 17.8376 71.1528 18.0066 70.9936 18.1458C70.8544 18.285 70.6853 18.3546 70.4865 18.3546H60.7305C60.7305 18.3745 60.7305 18.4143 60.7305 18.4739C60.7305 18.5137 60.7305 18.5535 60.7305 18.5932C60.7504 19.2296 60.8697 19.8162 61.0885 20.3531C61.3272 20.8702 61.6554 21.2878 62.0731 21.6059C62.5106 21.9241 63.0278 22.0832 63.6245 22.0832C64.1217 22.0832 64.5295 22.0136 64.8477 21.8744C65.1659 21.7352 65.4245 21.5662 65.6234 21.3673C65.8422 21.1684 66.0013 20.9994 66.1007 20.8602C66.2798 20.6614 66.419 20.542 66.5184 20.5023C66.6378 20.4426 66.8168 20.4128 67.0555 20.4128H70.1583C70.3572 20.4128 70.5163 20.4724 70.6356 20.5918C70.7749 20.6912 70.8345 20.8403 70.8146 21.0392C70.7947 21.3574 70.6257 21.7551 70.3074 22.2323C70.0091 22.6897 69.5616 23.1471 68.9649 23.6044C68.3682 24.0419 67.6223 24.4098 66.7273 24.7081C65.8521 25.0064 64.8377 25.1555 63.6841 25.1555ZM60.7305 15.6402H66.5781V15.5806C66.5781 14.8647 66.4588 14.2482 66.2201 13.7312C66.0013 13.1943 65.6731 12.7767 65.2355 12.4784C64.798 12.1801 64.2709 12.031 63.6543 12.031C63.0377 12.031 62.5106 12.1801 62.0731 12.4784C61.6355 12.7767 61.2974 13.1943 61.0587 13.7312C60.8399 14.2482 60.7305 14.8647 60.7305 15.5806V15.6402ZM71.8987 24.8572C71.7197 24.8572 71.5606 24.7976 71.4214 24.6783C71.302 24.5391 71.2423 24.38 71.2423 24.201C71.2423 24.1414 71.2523 24.0718 71.2722 23.9922C71.312 23.8928 71.3617 23.8033 71.4214 23.7238L76.4634 16.893L71.839 10.4799C71.7794 10.4003 71.7296 10.3208 71.6899 10.2412C71.67 10.1617 71.66 10.0822 71.66 10.0026C71.66 9.82364 71.7197 9.6745 71.839 9.55518C71.9783 9.41598 72.1374 9.34638 72.3164 9.34638H75.4192C75.6579 9.34638 75.8369 9.40604 75.9562 9.52536C76.0955 9.64467 76.1949 9.75404 76.2546 9.85347L79.3276 14.0295L82.4005 9.8833C82.4801 9.78387 82.5795 9.6745 82.6989 9.55518C82.8182 9.41598 83.007 9.34638 83.2656 9.34638H86.2192C86.3982 9.34638 86.5474 9.41598 86.6667 9.55518C86.806 9.6745 86.8756 9.82364 86.8756 10.0026C86.8756 10.0822 86.8656 10.1617 86.8457 10.2412C86.8258 10.3208 86.7761 10.4003 86.6966 10.4799L81.9828 16.9228L87.0844 23.7238C87.1441 23.8033 87.1839 23.8828 87.2038 23.9624C87.2435 24.0419 87.2634 24.1215 87.2634 24.201C87.2634 24.38 87.1938 24.5391 87.0546 24.6783C86.9352 24.7976 86.7861 24.8572 86.6071 24.8572H83.3551C83.1363 24.8572 82.9672 24.8075 82.848 24.7081C82.7287 24.5888 82.6293 24.4794 82.5497 24.38L79.238 19.9654L75.8667 24.38C75.8071 24.4595 75.7176 24.559 75.5982 24.6783C75.4789 24.7976 75.2999 24.8572 75.0612 24.8572H71.8987ZM95.981 24.8572C94.7478 24.8572 93.6936 24.6584 92.8185 24.2607C91.9433 23.8431 91.277 23.2067 90.8196 22.3516C90.382 21.4966 90.1632 20.4227 90.1632 19.1302V12.8662H87.8361C87.6173 12.8662 87.4383 12.7966 87.2991 12.6574C87.1598 12.5182 87.0902 12.3392 87.0902 12.1204V10.0921C87.0902 9.87336 87.1598 9.69438 87.2991 9.55518C87.4383 9.41598 87.6173 9.34638 87.8361 9.34638H90.1632V4.42467C90.1632 4.20593 90.2328 4.02695 90.372 3.88775C90.5312 3.74855 90.7102 3.67896 90.9091 3.67896H93.8329C94.0516 3.67896 94.2307 3.74855 94.3699 3.88775C94.5091 4.02695 94.5787 4.20593 94.5787 4.42467V9.34638H98.3081C98.507 9.34638 98.676 9.41598 98.8153 9.55518C98.9545 9.69438 99.0241 9.87336 99.0241 10.0921V12.1204C99.0241 12.3392 98.9545 12.5182 98.8153 12.6574C98.676 12.7966 98.507 12.8662 98.3081 12.8662H94.5787V18.7722C94.5787 19.5279 94.708 20.1244 94.9666 20.5619C95.245 20.9795 95.7224 21.1883 96.3986 21.1883H98.5766C98.7755 21.1883 98.9445 21.2579 99.0838 21.3971C99.223 21.5363 99.2926 21.7054 99.2926 21.9042V24.1115C99.2926 24.3303 99.223 24.5092 99.0838 24.6484C98.9445 24.7876 98.7755 24.8572 98.5766 24.8572H95.981Z" fill="#101828"/>
<g id="Clip path group">
<mask id="mask0_38_181" style="mask-type:luminance" maskUnits="userSpaceOnUse" x="0" y="0" width="30" height="29">
<g id="clip0_15_698">
<path id="Vector_2" d="M29.006 0H0V29H29.006V0Z" fill="white"/>
</g>
</mask>
<g mask="url(#mask0_38_181)">
<g id="Group">
<path id="Vector_3" d="M14.503 29C22.5128 29 29.006 22.5081 29.006 14.5C29.006 6.49187 22.5128 0 14.503 0C6.49321 0 0 6.49187 0 14.5C0 22.5081 6.49321 29 14.503 29Z" fill="#5C30FD"/>
<path id="Vector_4" d="M19.7098 15.622C17.8678 17.4723 16.0206 19.3176 14.1681 21.158C11.7502 23.4429 8.30739 20.0915 10.5332 17.6395C11.587 16.5826 12.6044 15.5127 13.7057 14.4999C12.6458 13.4413 11.6533 12.4756 10.6205 11.4204C9.05235 9.96639 10.0659 7.17232 12.2096 7.0902C12.9761 7.02336 13.6423 7.28107 14.1879 7.82652C16.028 9.66164 17.8658 11.4991 19.7013 13.3388C20.3749 14.0156 20.3817 14.9469 19.7098 15.622Z" fill="white"/>
</g>
</g>
</g>
</g>
</svg>
